<svg width="1440" height="1080" viewBox="0 0 1440 1080" fill="none" xmlns="http://www.w3.org/2000/svg" preserveAspectRatio="xMidYMid slice">
<g clip-path="url(#clip0_1_2)">
<path d="M110.097 571H81.8752L90.5949 461.113H134.568L142.819 497.961L146.57 516.619L150.132 498.055L157.446 461.113H196.637L204.701 571H175.541L170.76 506.399L169.634 482.584L155.289 560.03H130.818L113.566 482.584L113.003 506.399L110.097 571ZM254.448 562.655L253.511 563.687C252.886 564.437 251.917 565.312 250.604 566.312C249.354 567.312 247.885 568.312 246.197 569.312C244.572 570.312 242.572 571.156 240.197 571.844C237.822 572.594 235.384 572.969 232.884 572.969C216.007 572.969 207.568 564.624 207.568 547.935C207.568 544.685 208.162 541.716 209.35 539.028C210.537 536.278 212.069 533.965 213.944 532.09C215.819 530.214 218.069 528.558 220.695 527.12C223.32 525.62 225.945 524.464 228.571 523.651C231.258 522.776 234.071 522.057 237.009 521.495C239.947 520.932 242.572 520.557 244.885 520.37C247.198 520.182 249.417 520.088 251.542 520.088V518.401C251.542 514.588 250.51 511.9 248.448 510.337C246.447 508.775 243.197 507.993 238.697 507.993C234.821 507.993 230.79 508.462 226.602 509.4C222.414 510.275 219.132 511.337 216.757 512.588L210.756 499.836C215.007 497.086 220.538 494.679 227.352 492.617C234.165 490.492 241.103 489.429 248.166 489.429C254.417 489.429 259.574 490.054 263.637 491.304C267.7 492.492 270.981 494.554 273.482 497.492C276.044 500.368 277.857 504.055 278.92 508.556C279.982 512.994 280.514 518.651 280.514 525.526V563.687L283.139 571H257.449L254.448 562.655ZM247.041 556.467C247.854 556.467 248.604 556.311 249.292 555.998C250.042 555.623 250.604 555.28 250.979 554.967C251.354 554.592 251.542 554.405 251.542 554.405V531.902C247.729 531.902 244.697 532.965 242.447 535.09C240.197 537.153 239.072 540.372 239.072 544.747C239.072 552.561 241.728 556.467 247.041 556.467ZM322.789 571H292.505V510.337L286.879 506.868V496.273L307.037 491.304H314.632L317.351 513.619C319.914 498.305 328.133 490.648 342.01 490.648C343.572 490.648 345.198 490.929 346.885 491.492L343.697 524.87C342.385 523.683 339.51 523.089 335.072 523.089C328.696 523.089 324.602 524.776 322.789 528.152V571ZM392.751 603.253C386.313 603.253 380.249 602.316 374.561 600.441C368.873 598.565 364.717 596.034 362.091 592.846L366.967 582.72C370.592 584.783 376.343 585.814 384.219 585.814C386.719 585.814 388.875 585.533 390.688 584.97C392.501 584.408 394.126 583.408 395.564 581.97C397.001 580.595 398.095 578.626 398.845 576.063C399.595 573.5 400.001 570.344 400.064 566.593V558.53L399.126 560.03C398.501 561.03 397.532 562.249 396.22 563.687C394.97 565.062 393.532 566.468 391.907 567.906C390.282 569.281 388.282 570.469 385.906 571.469C383.594 572.469 381.218 572.969 378.781 572.969C369.467 572.969 362.904 570.375 359.091 565.187C355.278 559.936 353.372 551.123 353.372 538.747V505.462L349.996 502.086V491.304H384.125V544.653C384.125 547.529 384.562 549.654 385.437 551.029C386.375 552.342 388.219 552.998 390.969 552.998C391.782 552.998 392.594 552.873 393.407 552.623C394.22 552.311 395.001 551.904 395.751 551.404C396.564 550.904 397.407 550.279 398.283 549.529V505.462L393.126 502.086V491.304H428.848V560.03C428.848 573.844 425.91 584.501 420.035 592.002C414.159 599.503 405.065 603.253 392.751 603.253ZM531.898 571L527.679 553.467H501.051L497.488 571H469.922L498.519 468.708L496.269 461.113H534.992L566.308 571H531.898ZM513.146 493.367L504.895 534.34H523.084L513.146 493.367ZM570.006 571V464.958L564.38 461.582V452.863L594.477 448.175H600.572V571H570.006ZM661.07 571C654.069 571 647.818 569.531 642.318 566.593V571H611.752V464.958L606.126 461.582V452.863L636.223 448.175H642.318V498.617C643.318 497.492 644.412 496.43 645.599 495.43C646.787 494.429 648.224 493.461 649.912 492.523C651.6 491.585 653.506 490.835 655.631 490.273C657.819 489.71 660.132 489.429 662.57 489.429C672.883 489.429 680.447 492.961 685.26 500.024C690.135 507.087 692.573 516.869 692.573 529.371C692.573 535.246 691.917 540.684 690.604 545.685C689.291 550.623 687.354 554.998 684.791 558.811C682.228 562.624 678.915 565.624 674.852 567.812C670.852 569.937 666.258 571 661.07 571ZM647.287 557.967C655.663 557.967 659.851 551.56 659.851 538.747V522.807C659.851 517.432 658.851 513.306 656.85 510.431C654.913 507.493 652.412 506.024 649.35 506.024C647.037 506.024 644.693 506.868 642.318 508.556V557.311C643.255 557.561 644.13 557.749 644.943 557.874C645.755 557.936 646.537 557.967 647.287 557.967ZM748.186 558.53C747.811 559.405 747.03 560.561 745.842 561.999C744.717 563.437 743.217 565.031 741.342 566.781C739.467 568.468 737.154 569.906 734.404 571.094C731.653 572.344 728.872 572.969 726.059 572.969C717.246 572.969 710.932 570.344 707.12 565.093C703.369 559.843 701.494 551.092 701.494 538.84V505.462L698.212 502.086V491.304H732.247V544.747C732.185 547.56 732.654 549.654 733.654 551.029C734.654 552.342 736.466 552.998 739.092 552.998C739.467 552.998 739.811 552.998 740.123 552.998C740.436 552.936 740.748 552.873 741.061 552.811C741.373 552.686 741.623 552.592 741.811 552.529C742.061 552.467 742.342 552.373 742.655 552.248C742.967 552.061 743.217 551.904 743.405 551.779C743.592 551.654 743.842 551.498 744.155 551.31C744.467 551.06 744.686 550.873 744.811 550.748C744.999 550.623 745.249 550.435 745.561 550.185C745.936 549.873 746.217 549.654 746.405 549.529V505.462L741.342 502.086V491.304H777.064V571H751.093L748.186 558.53ZM829.061 555.061C829.936 555.061 830.842 554.936 831.78 554.686C832.78 554.436 833.749 554.061 834.686 553.561V503.962C833.311 503.712 831.999 503.587 830.749 503.587C822.435 503.649 818.247 510.056 818.185 522.807V537.34C818.185 541.341 818.716 544.778 819.779 547.654C821.654 552.592 824.748 555.061 829.061 555.061ZM864.877 599.315H834.686V564.062C829.373 569.437 822.966 572.125 815.466 572.125C805.152 572.125 797.589 568.593 792.776 561.53C787.963 554.467 785.556 544.653 785.556 532.09C785.556 524.214 786.681 517.213 788.932 511.087C791.182 504.899 794.713 499.93 799.526 496.18C804.34 492.429 810.153 490.554 816.966 490.554C820.091 490.554 823.06 490.835 825.873 491.398C828.686 491.96 831.03 492.679 832.905 493.554C834.843 494.429 836.249 495.148 837.124 495.711C837.999 496.211 838.687 496.648 839.187 497.023L843.312 491.304H864.877V599.315ZM921.239 558.53C920.864 559.405 920.083 560.561 918.895 561.999C917.77 563.437 916.27 565.031 914.395 566.781C912.52 568.468 910.207 569.906 907.457 571.094C904.706 572.344 901.925 572.969 899.112 572.969C890.298 572.969 883.985 570.344 880.172 565.093C876.422 559.843 874.547 551.092 874.547 538.84V505.462L871.265 502.086V491.304H905.3V544.747C905.238 547.56 905.706 549.654 906.706 551.029C907.707 552.342 909.519 552.998 912.145 552.998C912.52 552.998 912.863 552.998 913.176 552.998C913.488 552.936 913.801 552.873 914.113 552.811C914.426 552.686 914.676 552.592 914.864 552.529C915.114 552.467 915.395 552.373 915.707 552.248C916.02 552.061 916.27 551.904 916.457 551.779C916.645 551.654 916.895 551.498 917.208 551.31C917.52 551.06 917.739 550.873 917.864 550.748C918.051 550.623 918.301 550.435 918.614 550.185C918.989 549.873 919.27 549.654 919.458 549.529V505.462L914.395 502.086V491.304H950.117V571H924.146L921.239 558.53ZM1005.11 522.526C1005.11 514.588 1004.71 508.962 1003.9 505.649C1003.08 502.337 1001.58 500.68 999.395 500.68C997.52 500.68 995.988 501.024 994.801 501.711C993.613 502.337 992.738 503.368 992.175 504.806C991.613 506.181 991.238 507.618 991.05 509.118C990.925 510.556 990.863 512.4 990.863 514.65V522.526H1005.11ZM997.613 572.969C990.613 572.969 984.518 571.906 979.33 569.781C974.205 567.656 970.142 564.687 967.141 560.874C964.204 557.061 962.047 552.779 960.672 548.029C959.297 543.216 958.609 537.872 958.609 531.996C958.609 517.994 962.172 507.4 969.298 500.211C976.424 493.023 986.393 489.429 999.207 489.429C1011.52 489.429 1020.33 492.335 1025.65 498.149C1030.96 503.899 1033.62 513.181 1033.62 525.995V536.403H990.769V538.184C990.769 541.872 991.144 544.904 991.894 547.279C992.707 549.654 993.863 551.404 995.363 552.529C996.863 553.654 998.395 554.405 999.957 554.78C1001.52 555.155 1003.43 555.342 1005.68 555.342C1007.86 555.342 1010.21 555.061 1012.71 554.498C1015.27 553.936 1017.83 553.061 1020.4 551.873C1023.02 550.685 1025.21 549.279 1026.96 547.654L1032.49 557.124C1030.18 560.874 1026.77 564.031 1022.27 566.593C1017.83 569.094 1013.55 570.781 1009.43 571.656C1005.3 572.531 1001.36 572.969 997.613 572.969ZM1074.06 571H1043.77V510.337L1038.15 506.868V496.273L1058.31 491.304H1065.9L1068.62 513.619C1071.18 498.305 1079.4 490.648 1093.28 490.648C1094.84 490.648 1096.47 490.929 1098.15 491.492L1094.97 524.87C1093.65 523.683 1090.78 523.089 1086.34 523.089C1079.97 523.089 1075.87 524.776 1074.06 528.152V571ZM1144.68 555.061C1145.55 555.061 1146.46 554.936 1147.4 554.686C1148.4 554.436 1149.36 554.061 1150.3 553.561V503.962C1148.93 503.712 1147.61 503.587 1146.36 503.587C1138.05 503.649 1133.86 510.056 1133.8 522.807V537.34C1133.8 541.341 1134.33 544.778 1135.39 547.654C1137.27 552.592 1140.36 555.061 1144.68 555.061ZM1180.49 599.315H1150.3V564.062C1144.99 569.437 1138.58 572.125 1131.08 572.125C1120.77 572.125 1113.2 568.593 1108.39 561.53C1103.58 554.467 1101.17 544.653 1101.17 532.09C1101.17 524.214 1102.3 517.213 1104.55 511.087C1106.8 504.899 1110.33 499.93 1115.14 496.18C1119.96 492.429 1125.77 490.554 1132.58 490.554C1135.71 490.554 1138.68 490.835 1141.49 491.398C1144.3 491.96 1146.65 492.679 1148.52 493.554C1150.46 494.429 1151.86 495.148 1152.74 495.711C1153.61 496.211 1154.3 496.648 1154.8 497.023L1158.93 491.304H1180.49V599.315ZM1236.85 558.53C1236.48 559.405 1235.7 560.561 1234.51 561.999C1233.39 563.437 1231.89 565.031 1230.01 566.781C1228.14 568.468 1225.82 569.906 1223.07 571.094C1220.32 572.344 1217.54 572.969 1214.73 572.969C1205.91 572.969 1199.6 570.344 1195.79 565.093C1192.04 559.843 1190.16 551.092 1190.16 538.84V505.462L1186.88 502.086V491.304H1220.92V544.747C1220.85 547.56 1221.32 549.654 1222.32 551.029C1223.32 552.342 1225.13 552.998 1227.76 552.998C1228.14 552.998 1228.48 552.998 1228.79 552.998C1229.1 552.936 1229.42 552.873 1229.73 552.811C1230.04 552.686 1230.29 552.592 1230.48 552.529C1230.73 552.467 1231.01 552.373 1231.32 552.248C1231.64 552.061 1231.89 551.904 1232.07 551.779C1232.26 551.654 1232.51 551.498 1232.82 551.31C1233.14 551.06 1233.35 550.873 1233.48 550.748C1233.67 550.623 1233.92 550.435 1234.23 550.185C1234.6 549.873 1234.89 549.654 1235.07 549.529V505.462L1230.01 502.086V491.304H1265.73V571H1239.76L1236.85 558.53ZM1320.73 522.526C1320.73 514.588 1320.32 508.962 1319.51 505.649C1318.7 502.337 1317.2 500.68 1315.01 500.68C1313.14 500.68 1311.6 501.024 1310.42 501.711C1309.23 502.337 1308.35 503.368 1307.79 504.806C1307.23 506.181 1306.85 507.618 1306.67 509.118C1306.54 510.556 1306.48 512.4 1306.48 514.65V522.526H1320.73ZM1313.23 572.969C1306.23 572.969 1300.13 571.906 1294.95 569.781C1289.82 567.656 1285.76 564.687 1282.76 560.874C1279.82 557.061 1277.66 552.779 1276.29 548.029C1274.91 543.216 1274.22 537.872 1274.22 531.996C1274.22 517.994 1277.79 507.4 1284.91 500.211C1292.04 493.023 1302.01 489.429 1314.82 489.429C1327.14 489.429 1335.95 492.335 1341.26 498.149C1346.58 503.899 1349.23 513.181 1349.23 525.995V536.403H1306.38V538.184C1306.38 541.872 1306.76 544.904 1307.51 547.279C1308.32 549.654 1309.48 551.404 1310.98 552.529C1312.48 553.654 1314.01 554.405 1315.57 554.78C1317.14 555.155 1319.04 555.342 1321.29 555.342C1323.48 555.342 1325.82 555.061 1328.32 554.498C1330.89 553.936 1333.45 553.061 1336.01 551.873C1338.64 550.685 1340.83 549.279 1342.58 547.654L1348.11 557.124C1345.79 560.874 1342.39 564.031 1337.89 566.593C1333.45 569.094 1329.17 570.781 1325.04 571.656C1320.92 572.531 1316.98 572.969 1313.23 572.969Z" fill="black"/>
</g>
<defs>
<clipPath id="clip0_1_2">
<rect width="1440" height="1080" fill="white"/>
</clipPath>
</defs>
</svg>
