<svg width="1440" height="1080" viewBox="0 0 1440 1080" fill="none" xmlns="http://www.w3.org/2000/svg">
<g clip-path="url(#clip0_1_2)">
<path d="M348.209 572.969C343.396 572.969 338.896 572.531 334.708 571.656C330.583 570.844 327.114 569.75 324.301 568.375C321.488 567 319.175 565.687 317.362 564.437C315.612 563.187 314.143 561.937 312.956 560.686L315.3 537.903C317.863 541.341 321.3 544.341 325.613 546.904C329.926 549.404 334.583 550.654 339.584 550.654C344.584 550.654 348.178 550.123 350.366 549.06C352.616 547.998 353.741 546.06 353.741 543.247C353.741 540.247 352.46 537.684 349.897 535.559C347.397 533.434 343.053 530.871 336.865 527.87C334.614 526.745 332.708 525.745 331.145 524.87C329.583 523.933 327.489 522.432 324.863 520.37C322.301 518.244 320.207 516.057 318.581 513.806C316.956 511.494 315.519 508.556 314.268 504.993C313.018 501.368 312.393 497.492 312.393 493.367C312.393 471.052 324.988 459.895 350.178 459.895C354.179 459.895 357.929 460.332 361.43 461.207C364.993 462.02 367.774 462.926 369.774 463.926C371.774 464.926 373.587 466.114 375.212 467.489C376.9 468.802 377.963 469.739 378.4 470.302C378.838 470.802 379.15 471.208 379.338 471.521L374.65 489.616C372.212 486.741 369.149 484.616 365.461 483.241C361.836 481.803 358.367 481.084 355.054 481.084C347.053 481.084 343.053 483.585 343.053 488.585C343.053 489.898 343.303 491.085 343.803 492.148C344.303 493.211 345.115 494.179 346.241 495.054C347.366 495.93 348.397 496.68 349.335 497.305C350.335 497.93 351.679 498.711 353.366 499.649C355.116 500.524 356.429 501.243 357.304 501.805C366.43 505.681 373.118 510.275 377.369 515.588C381.682 520.901 383.838 527.37 383.838 534.996C383.838 547.373 380.775 556.811 374.65 563.312C368.587 569.75 359.773 572.969 348.209 572.969ZM440.653 558.53C440.278 559.405 439.497 560.561 438.309 561.999C437.184 563.437 435.684 565.031 433.809 566.781C431.933 568.468 429.621 569.906 426.87 571.094C424.12 572.344 421.339 572.969 418.526 572.969C409.712 572.969 403.399 570.344 399.586 565.093C395.836 559.843 393.961 551.092 393.961 538.84V505.462L390.679 502.086V491.304H424.714V544.747C424.651 547.56 425.12 549.654 426.12 551.029C427.12 552.342 428.933 552.998 431.558 552.998C431.933 552.998 432.277 552.998 432.59 552.998C432.902 552.936 433.215 552.873 433.527 552.811C433.84 552.686 434.09 552.592 434.277 552.529C434.527 552.467 434.809 552.373 435.121 552.248C435.434 552.061 435.684 551.904 435.871 551.779C436.059 551.654 436.309 551.498 436.621 551.31C436.934 551.06 437.153 550.873 437.278 550.748C437.465 550.623 437.715 550.435 438.028 550.185C438.403 549.873 438.684 549.654 438.872 549.529V505.462L433.809 502.086V491.304H469.531V571H443.56L440.653 558.53ZM480.367 571C480.179 568.875 479.679 566.124 478.867 562.749C478.054 559.311 477.273 556.561 476.523 554.498L509.901 511.744L520.402 503.962C517.59 503.962 515.027 504.118 512.714 504.43C510.464 504.681 508.557 504.993 506.995 505.368C505.432 505.743 503.994 506.337 502.682 507.15C501.369 507.9 500.369 508.556 499.682 509.118C498.994 509.619 498.306 510.4 497.619 511.462C496.931 512.525 496.462 513.338 496.212 513.9C496.025 514.4 495.712 515.244 495.275 516.432C494.837 517.619 494.556 518.401 494.431 518.776H481.492V491.304H544.217C544.53 493.429 545.061 495.867 545.811 498.617C546.624 501.368 547.53 503.962 548.53 506.399L520.684 547.654L509.151 556.186C515.152 556.186 519.871 555.936 523.309 555.436C528.497 554.686 531.872 553.029 533.435 550.467C534.06 549.466 534.935 546.872 536.06 542.685H547.03V571H480.367ZM595.861 603.253C589.423 603.253 583.36 602.316 577.671 600.441C571.983 598.565 567.827 596.034 565.201 592.846L570.077 582.72C573.702 584.783 579.453 585.814 587.329 585.814C589.829 585.814 591.985 585.533 593.798 584.97C595.611 584.408 597.236 583.408 598.674 581.97C600.111 580.595 601.205 578.626 601.955 576.063C602.705 573.5 603.112 570.344 603.174 566.593V558.53L602.237 560.03C601.611 561.03 600.643 562.249 599.33 563.687C598.08 565.062 596.642 566.468 595.017 567.906C593.392 569.281 591.392 570.469 589.016 571.469C586.704 572.469 584.328 572.969 581.891 572.969C572.577 572.969 566.014 570.375 562.201 565.187C558.388 559.936 556.482 551.123 556.482 538.747V505.462L553.106 502.086V491.304H587.235V544.653C587.235 547.529 587.672 549.654 588.548 551.029C589.485 552.342 591.329 552.998 594.079 552.998C594.892 552.998 595.705 552.873 596.517 552.623C597.33 552.311 598.111 551.904 598.861 551.404C599.674 550.904 600.518 550.279 601.393 549.529V505.462L596.236 502.086V491.304H631.958V560.03C631.958 573.844 629.021 584.501 623.145 592.002C617.269 599.503 608.175 603.253 595.861 603.253ZM718.131 555.623C722.882 555.623 726.507 552.686 729.007 546.81C731.57 540.934 732.851 531.246 732.851 517.744V508.275C732.851 498.399 731.664 490.773 729.288 485.397C726.913 480.022 723.538 477.334 719.162 477.334H712.13V555.623H718.131ZM721.038 571.656C718.787 571.656 715.287 571.531 710.536 571.281C705.848 571.094 701.004 571 696.004 571H681.096V461.113H696.004C700.192 461.051 704.755 460.895 709.693 460.645C714.631 460.395 718.506 460.27 721.319 460.27C737.258 460.27 748.665 464.739 755.541 473.677C762.479 482.616 765.949 495.648 765.949 512.775C765.949 518.588 765.542 524.12 764.73 529.371C763.98 534.621 762.542 539.903 760.417 545.216C758.292 550.467 755.604 554.998 752.353 558.811C749.103 562.624 744.79 565.718 739.415 568.093C734.039 570.469 727.913 571.656 721.038 571.656ZM821.644 558.53C821.269 559.405 820.488 560.561 819.3 561.999C818.175 563.437 816.675 565.031 814.8 566.781C812.924 568.468 810.612 569.906 807.861 571.094C805.111 572.344 802.33 572.969 799.517 572.969C790.703 572.969 784.39 570.344 780.577 565.093C776.827 559.843 774.952 551.092 774.952 538.84V505.462L771.67 502.086V491.304H805.705V544.747C805.642 547.56 806.111 549.654 807.111 551.029C808.111 552.342 809.924 552.998 812.549 552.998C812.924 552.998 813.268 552.998 813.581 552.998C813.893 552.936 814.206 552.873 814.518 552.811C814.831 552.686 815.081 552.592 815.268 552.529C815.519 552.467 815.8 552.373 816.112 552.248C816.425 552.061 816.675 551.904 816.862 551.779C817.05 551.654 817.3 551.498 817.612 551.31C817.925 551.06 818.144 550.873 818.269 550.748C818.456 550.623 818.706 550.435 819.019 550.185C819.394 549.873 819.675 549.654 819.863 549.529V505.462L814.8 502.086V491.304H850.522V571H824.551L821.644 558.53ZM903.925 562.655L902.987 563.687C902.362 564.437 901.394 565.312 900.081 566.312C898.831 567.312 897.362 568.312 895.674 569.312C894.049 570.312 892.049 571.156 889.674 571.844C887.298 572.594 884.861 572.969 882.36 572.969C865.483 572.969 857.045 564.624 857.045 547.935C857.045 544.685 857.639 541.716 858.827 539.028C860.014 536.278 861.546 533.965 863.421 532.09C865.296 530.214 867.546 528.558 870.171 527.12C872.797 525.62 875.422 524.464 878.047 523.651C880.735 522.776 883.548 522.057 886.486 521.495C889.423 520.932 892.049 520.557 894.362 520.37C896.674 520.182 898.893 520.088 901.018 520.088V518.401C901.018 514.588 899.987 511.9 897.924 510.337C895.924 508.775 892.674 507.993 888.173 507.993C884.298 507.993 880.266 508.462 876.078 509.4C871.89 510.275 868.609 511.337 866.234 512.588L860.233 499.836C864.483 497.086 870.015 494.679 876.828 492.617C883.642 490.492 890.58 489.429 897.643 489.429C903.894 489.429 909.051 490.054 913.113 491.304C917.176 492.492 920.458 494.554 922.958 497.492C925.521 500.368 927.334 504.055 928.396 508.556C929.459 512.994 929.99 518.651 929.99 525.526V563.687L932.616 571H906.925L903.925 562.655ZM896.518 556.467C897.331 556.467 898.081 556.311 898.768 555.998C899.518 555.623 900.081 555.28 900.456 554.967C900.831 554.592 901.018 554.405 901.018 554.405V531.902C897.206 531.902 894.174 532.965 891.924 535.09C889.674 537.153 888.548 540.372 888.548 544.747C888.548 552.561 891.205 556.467 896.518 556.467ZM972.266 571H941.981V510.337L936.356 506.868V496.273L956.514 491.304H964.109L966.828 513.619C969.39 498.305 977.61 490.648 991.486 490.648C993.049 490.648 994.674 490.929 996.362 491.492L993.174 524.87C991.861 523.683 988.986 523.089 984.548 523.089C978.173 523.089 974.078 524.776 972.266 528.152V571ZM1025.73 572.969C1017.29 572.969 1011.38 570.437 1008.01 565.374C1004.69 560.311 1003.04 551.748 1003.04 539.684V507.806H996.566V494.773L1007.63 491.304L1017.19 469.458H1033.7V491.304H1049.07V507.806H1033.41V542.685C1033.41 547.685 1034.13 550.998 1035.57 552.623C1037.01 554.248 1039.23 555.061 1042.23 555.061C1043.54 555.061 1044.73 554.905 1045.79 554.592C1046.85 554.279 1047.73 553.842 1048.42 553.279V566.031C1047.48 566.968 1046.26 567.906 1044.76 568.844C1043.26 569.719 1040.76 570.625 1037.26 571.563C1033.82 572.5 1029.98 572.969 1025.73 572.969ZM1099.45 522.526C1099.45 514.588 1099.04 508.962 1098.23 505.649C1097.42 502.337 1095.92 500.68 1093.73 500.68C1091.85 500.68 1090.32 501.024 1089.13 501.711C1087.95 502.337 1087.07 503.368 1086.51 504.806C1085.95 506.181 1085.57 507.618 1085.38 509.118C1085.26 510.556 1085.2 512.4 1085.2 514.65V522.526H1099.45ZM1091.95 572.969C1084.95 572.969 1078.85 571.906 1073.66 569.781C1068.54 567.656 1064.48 564.687 1061.48 560.874C1058.54 557.061 1056.38 552.779 1055.01 548.029C1053.63 543.216 1052.94 537.872 1052.94 531.996C1052.94 517.994 1056.51 507.4 1063.63 500.211C1070.76 493.023 1080.73 489.429 1093.54 489.429C1105.86 489.429 1114.67 492.335 1119.98 498.149C1125.29 503.899 1127.95 513.181 1127.95 525.995V536.403H1085.1V538.184C1085.1 541.872 1085.48 544.904 1086.23 547.279C1087.04 549.654 1088.2 551.404 1089.7 552.529C1091.2 553.654 1092.73 554.405 1094.29 554.78C1095.85 555.155 1097.76 555.342 1100.01 555.342C1102.2 555.342 1104.54 555.061 1107.04 554.498C1109.61 553.936 1112.17 553.061 1114.73 551.873C1117.36 550.685 1119.54 549.279 1121.29 547.654L1126.83 557.124C1124.51 560.874 1121.11 564.031 1116.61 566.593C1112.17 569.094 1107.89 570.781 1103.76 571.656C1099.64 572.531 1095.7 572.969 1091.95 572.969Z" fill="black"/>
</g>
<defs>
<clipPath id="clip0_1_2">
<rect width="1440" height="1080" fill="white"/>
</clipPath>
</defs>
</svg>
